<?xml version="1.0" encoding="UTF-8"?>
<svg width="200px" height="401px" viewBox="0 0 200 401" version="1.1" xmlns="http://www.w3.org/2000/svg" xmlns:xlink="http://www.w3.org/1999/xlink">
    <title>My_Personal_Logo</title>
    <defs>
        <rect id="path-1" x="0" y="0" width="200" height="202.469136"></rect>
        <polygon id="path-3" points="77.6699029 158.024691 38.8349515 197.530864 0 197.530864 0 0 38.8349515 0 38.8349515 138.271605 77.6699029 98.7654321 116.504854 138.271605 116.504854 0 155.339806 0 155.339806 197.530864 116.504854 197.530864"></polygon>
        <polygon id="path-5" points="38.8349515 79.0123457 38.8349515 197.530864 0 197.530864 0 0 38.8349515 0 116.504854 118.518519 116.504854 0 155.339806 0 155.339806 197.530864 116.504854 197.530864"></polygon>
    </defs>
    <g id="Page-1" stroke="none" stroke-width="1" fill="none" fill-rule="evenodd">
        <g id="Final-Logo">
            <g id="Working-1" transform="translate(0.000000, 197.530864)">
                <mask id="mask-2" fill="white">
                    <use xlink:href="#path-1"></use>
                </mask>
                <g id="Rectangle"></g>
                <polygon id="W" fill="#6639A6" mask="url(#mask-2)" points="97.0873786 158.024691 58.2524272 197.530864 19.4174757 197.530864 19.4174757 0 58.2524272 0 58.2524272 138.271605 97.0873786 98.7654321 135.92233 138.271605 135.92233 0 174.757282 0 174.757282 197.530864 135.92233 197.530864"></polygon>
            </g>
            <g id="Working-2" transform="translate(19.417476, 197.530864)">
                <mask id="mask-4" fill="white">
                    <use xlink:href="#path-3"></use>
                </mask>
                <use id="W" fill="#6639A6" xlink:href="#path-3"></use>
                <path d="M-19.4174757,98.7654321 C-19.4174757,158.024691 26.7445388,197.530864 77.6699029,197.530864 C128.595267,197.530864 174.757282,168.034336 174.757282,98.7654321 C174.757282,29.4965278 135.92233,-19.7530864 77.6699029,-19.7530864 C19.4174757,-19.7530864 19.4174757,-86.8171296 19.4174757,-98.7654321 C19.4174757,-110.713735 19.4174757,-158.024691 77.6699029,-158.024691 C135.92233,-158.024691 135.92233,-119.691358 135.92233,-98.7654321 L174.757282,-98.7654321 C174.757282,-158.024691 135.92233,-197.530864 77.6699029,-197.530864 C19.4174757,-197.530864 -19.4174757,-168.190586 -19.4174757,-98.7654321 C-19.4174757,-29.3402778 32.0862409,19.7530864 77.6699029,19.7530864 C123.253565,19.7530864 135.92233,78.3256173 135.92233,98.7654321 C135.92233,119.205247 135.92233,158.024691 77.6699029,158.024691 C19.4174757,158.024691 19.4174757,117.040895 19.4174757,98.7654321 L-19.4174757,98.7654321 Z" id="S" fill-opacity="0.5" fill="#6FE7DD" mask="url(#mask-4)"></path>
            </g>
            <g id="Working-3" transform="translate(19.417476, 0.000000)" fill="#3490DE">
                <polygon id="N" points="38.8349515 79.0123457 38.8349515 197.530864 0 197.530864 0 0 38.8349515 0 116.504854 118.518519 116.504854 0 155.339806 0 155.339806 197.530864 116.504854 197.530864"></polygon>
            </g>
            <g id="Working-4" transform="translate(19.417476, 0.000000)">
                <mask id="mask-6" fill="white">
                    <use xlink:href="#path-5"></use>
                </mask>
                <use id="N" fill="#3490DE" xlink:href="#path-5"></use>
                <path d="M-19.4174757,296.296296 C-19.4174757,355.555556 26.7445388,395.061728 77.6699029,395.061728 C128.595267,395.061728 174.757282,365.565201 174.757282,296.296296 C174.757282,227.027392 135.92233,177.777778 77.6699029,177.777778 C19.4174757,177.777778 19.4174757,110.713735 19.4174757,98.7654321 C19.4174757,86.8171296 19.4174757,39.5061728 77.6699029,39.5061728 C135.92233,39.5061728 135.92233,77.8395062 135.92233,98.7654321 L174.757282,98.7654321 C174.757282,39.5061728 135.92233,0 77.6699029,0 C19.4174757,0 -19.4174757,29.3402778 -19.4174757,98.7654321 C-19.4174757,168.190586 32.0862409,217.283951 77.6699029,217.283951 C123.253565,217.283951 135.92233,275.856481 135.92233,296.296296 C135.92233,316.736111 135.92233,355.555556 77.6699029,355.555556 C19.4174757,355.555556 19.4174757,314.571759 19.4174757,296.296296 L-19.4174757,296.296296 Z" id="S" fill-opacity="0.5" fill="#6FE7DD" mask="url(#mask-6)"></path>
            </g>
        </g>
    </g>
</svg>